<svg width="97" height="62" viewBox="0 0 97 62" fill="none" xmlns="http://www.w3.org/2000/svg">
<path d="M58.4538 41.5244L78.2783 22.5657C74.1604 6.50872 57.8054 -3.16985 41.7483 0.948112C34.5173 2.80252 28.2369 7.28505 24.1328 13.5206C24.4397 13.5129 58.4538 41.5244 58.4538 41.5244Z" fill="#0364B8"/>
<path d="M37.0531 17.0897L37.0522 17.0929C33.2641 14.7468 28.8954 13.5067 24.4395 13.5127C24.3366 13.5127 24.2354 13.5192 24.1327 13.5205C10.8788 13.6847 0.267459 24.5621 0.431566 37.816C0.491054 42.6237 1.99328 47.3027 4.74347 51.2466L34.4438 47.5268L57.2144 29.166L37.0531 17.0897Z" fill="#0078D4"/>
<path d="M78.2786 22.5658C77.8428 22.5368 77.4048 22.5166 76.9617 22.5166C74.3022 22.514 71.6703 23.0572 69.2291 24.1126L69.2286 24.1106L57.2148 29.1662L70.4591 45.5261L94.1365 51.2818C99.2461 41.7961 95.6985 29.9643 86.2128 24.8547C83.7617 23.5344 81.0564 22.754 78.2787 22.5659V22.5658H78.2786Z" fill="#1490DF"/>
<path d="M4.74219 51.2467C9.22668 57.6943 16.5845 61.5368 24.4383 61.5327H76.96C84.1347 61.5348 90.7311 57.5977 94.1348 51.2819L57.2132 29.166L4.74219 51.2467Z" fill="#28A8EA"/>
</svg>
