<svg width="87" height="84" viewBox="0 0 87 84" fill="none" xmlns="http://www.w3.org/2000/svg">
<path d="M75.6619 0.000976562H11.8193C8.17035 0.000976562 5.21484 2.95649 5.21484 6.60536L5.34144 48.4333H82.2663V6.60536C82.2664 2.95649 79.3109 0.000976562 75.6619 0.000976562Z" fill="#C2C2C2"/>
<path d="M80.0615 13.208H7.41298C3.7641 13.208 0.808594 16.1635 0.808594 19.8125C0.808594 20.1207 0.830658 20.4234 0.869117 20.7151L5.21147 48.4315H82.2629L86.6053 20.7151C86.6439 20.4179 86.6658 20.1151 86.6658 19.8125C86.6659 16.1635 83.7104 13.208 80.0615 13.208Z" fill="#3367D6"/>
<path opacity="0.5" d="M80.0615 13.208H7.41298C3.7641 13.208 0.808594 16.1635 0.808594 19.8125C0.808594 20.1207 0.830658 20.4234 0.869117 20.7151L5.21147 48.4315H82.2629L86.6053 20.7151C86.6439 20.4179 86.6658 20.1151 86.6658 19.8125C86.6659 16.1635 83.7104 13.208 80.0615 13.208Z" fill="#2A56C6"/>
<path d="M84.4456 76.5959L82.2607 48.4336H5.20919L3.02433 76.5959C3.01336 76.75 3.00781 76.8987 3.00781 77.0527C3.00781 80.7017 5.96332 83.6571 9.6122 83.6571H77.8578C81.5068 83.6571 84.4622 80.7016 84.4622 77.0527C84.4622 76.8987 84.4567 76.75 84.4456 76.5959Z" fill="#4285F4"/>
<path d="M5.21484 48.4336L40.4384 83.6571H84.4678V48.4336H5.21484Z" fill="url(#paint0_linear)"/>
<path d="M7.41298 13.7603H80.0615C83.6334 13.7603 86.5393 16.6002 86.655 20.1446C86.6605 20.0345 86.6659 19.9244 86.6659 19.8143C86.6659 16.1653 83.7104 13.21 80.0615 13.21H7.41298C3.7641 13.21 0.808594 16.1655 0.808594 19.8145C0.808594 19.9245 0.814141 20.0346 0.819564 20.1447C0.935186 16.6002 3.84114 13.7603 7.41298 13.7603Z" fill="white" fill-opacity="0.2"/>
<path d="M77.8578 83.1059H9.6122C6.04036 83.1059 3.1344 80.266 3.01878 76.7217C3.01324 76.8318 3.00781 76.9418 3.00781 77.0519C3.00781 80.7009 5.96332 83.6563 9.6122 83.6563H77.8578C81.5068 83.6563 84.4622 80.7008 84.4622 77.0519C84.4622 76.9418 84.4566 76.8318 84.4512 76.7217C84.3356 80.266 81.4297 83.1059 77.8578 83.1059Z" fill="#1A237E" fill-opacity="0.2"/>
<path d="M75.6619 0.000976562H11.8193C8.17035 0.000976562 5.21484 2.95649 5.21484 6.60536V7.12825C5.23136 3.49577 8.18132 0.551352 11.8193 0.551352H75.662C79.311 0.551352 82.2664 3.50686 82.2664 7.15573V6.60536C82.2664 2.95649 79.3109 0.000976562 75.6619 0.000976562Z" fill="white" fill-opacity="0.2"/>
<path d="M37.2668 47.9599C39.7709 46.9252 42.9961 44.1733 42.9961 40.0291C42.9961 33.6448 38.8958 29.7207 31.9887 29.7207C25.8356 29.7207 20.8768 33.7494 20.7888 39.6273H25.2577C25.3238 36.1931 27.6463 33.3697 31.9833 33.3697C36.1606 33.3697 38.5162 35.5436 38.5162 39.9301C38.5162 44.3166 35.1589 46.3419 31.0642 46.3419C29.4571 46.3419 27.9437 46.3419 27.9437 46.3419V49.8423C27.9437 49.8423 29.6718 49.8423 31.0642 49.8423C37.0852 49.8423 39.0665 52.9684 39.0665 56.5953C39.0665 61.3395 36.1826 63.5299 32.0053 63.5299C28.3674 63.5299 25.0542 61.5871 24.9551 57.2447H20.4531C20.6458 64.2398 26.5347 67.1513 32.0053 67.1513C38.3235 67.1513 43.5355 63.4694 43.5355 56.4962C43.5465 50.8713 39.5397 48.6258 37.2668 47.9599ZM62.8148 29.7207L49.782 34.3988V38.6036L59.1383 35.4775V67.1456H63.5413V29.7207H62.8148Z" fill="#E1E1E1"/>
<g opacity="0.5">
<path opacity="0.5" d="M37.2668 47.9599C39.7709 46.9252 42.9961 44.1733 42.9961 40.0291C42.9961 33.6448 38.8958 29.7207 31.9887 29.7207C25.8356 29.7207 20.8768 33.7494 20.7888 39.6273H25.2577C25.3238 36.1931 27.6463 33.3697 31.9833 33.3697C36.1606 33.3697 38.5162 35.5436 38.5162 39.9301C38.5162 44.3166 35.1589 46.3419 31.0642 46.3419C29.4571 46.3419 27.9437 46.3419 27.9437 46.3419V49.8423C27.9437 49.8423 29.6718 49.8423 31.0642 49.8423C37.0852 49.8423 39.0665 52.9684 39.0665 56.5953C39.0665 61.3395 36.1826 63.5299 32.0053 63.5299C28.3674 63.5299 25.0542 61.5871 24.9551 57.2447H20.4531C20.6458 64.2398 26.5347 67.1513 32.0053 67.1513C38.3235 67.1513 43.5355 63.4694 43.5355 56.4962C43.5465 50.8713 39.5397 48.6258 37.2668 47.9599ZM62.8148 29.7207L49.782 34.3988V38.6036L59.1383 35.4775V67.1456H63.5413V29.7207H62.8148Z" fill="#C2C2C2"/>
</g>
<path d="M37.2785 47.9599C39.7826 46.9252 43.0078 44.1733 43.0078 40.0291C43.0078 33.6448 38.9075 29.7207 32.0004 29.7207C25.8473 29.7207 20.8885 33.7494 20.8005 39.6273H25.2694C25.3355 36.1931 27.6581 33.3697 31.995 33.3697C36.1723 33.3697 38.5279 35.5436 38.5279 39.9301C38.5279 44.3166 35.1707 46.3419 31.0759 46.3419C29.4688 46.3419 27.9554 46.3419 27.9554 46.3419V49.8423C27.9554 49.8423 29.6835 49.8423 31.0759 49.8423C37.0969 49.8423 39.0783 52.9684 39.0783 56.5953C39.0783 61.3395 36.1944 63.5299 32.0171 63.5299C28.3792 63.5299 25.0659 61.5871 24.9668 57.2447H20.4648C20.6575 64.2398 26.5465 67.1513 32.0171 67.1513C38.3352 67.1513 43.5472 63.4694 43.5472 56.4962C43.5582 50.8713 39.5515 48.6258 37.2785 47.9599ZM62.8265 29.7207L49.7938 34.3988V38.6036L59.15 35.4775V67.1456H63.553V29.7207H62.8265Z" fill="#EEEEEE"/>
<path d="M24.7536 13.2094L20.4883 8.93864L25.1554 4.27148L34.0989 13.2094H24.7536Z" fill="url(#paint1_linear)"/>
<path d="M22.8218 9.90724C24.6456 9.90724 26.124 8.42877 26.124 6.60499C26.124 4.7812 24.6456 3.30273 22.8218 3.30273C20.998 3.30273 19.5195 4.7812 19.5195 6.60499C19.5195 8.42877 20.998 9.90724 22.8218 9.90724Z" fill="#EEEEEE"/>
<path d="M22.8218 3.85311C24.5555 3.85311 25.9698 5.18498 26.1075 6.88011C26.1185 6.78656 26.124 6.69854 26.124 6.60499C26.124 4.78326 24.6435 3.30273 22.8218 3.30273C21.0001 3.30273 19.5195 4.78326 19.5195 6.60499C19.5195 6.69854 19.5251 6.78656 19.536 6.88011C19.6737 5.18498 21.0882 3.85311 22.8218 3.85311Z" fill="white" fill-opacity="0.4"/>
<path d="M26.1075 6.88086C25.97 8.57599 24.5499 9.90786 22.8218 9.90786C21.0936 9.90786 19.6737 8.57599 19.536 6.88086C19.5251 6.97442 19.5195 7.06243 19.5195 7.15599C19.5195 8.97771 21.0001 10.4582 22.8218 10.4582C24.6435 10.4582 26.124 8.97771 26.124 7.15599C26.124 7.06243 26.1185 6.97442 26.1075 6.88086Z" fill="#212121" fill-opacity="0.1"/>
<path d="M82.8124 48.4336H4.66016V48.984H82.8124V48.4336Z" fill="white" fill-opacity="0.05"/>
<path d="M82.8124 47.8838H4.66016V48.4342H82.8124V47.8838Z" fill="#1A237E" fill-opacity="0.05"/>
<path d="M66.5818 13.2104L62.3164 8.93962L66.9836 4.27246L73.7255 13.2104H66.5818Z" fill="url(#paint2_linear)"/>
<path d="M64.6499 9.90822C66.4737 9.90822 67.9522 8.42975 67.9522 6.60596C67.9522 4.78218 66.4737 3.30371 64.6499 3.30371C62.8261 3.30371 61.3477 4.78218 61.3477 6.60596C61.3477 8.42975 62.8261 9.90822 64.6499 9.90822Z" fill="#EEEEEE"/>
<path d="M64.6499 3.85409C66.3836 3.85409 67.798 5.18596 67.9356 6.88109C67.9412 6.78753 67.9522 6.69952 67.9522 6.60596C67.9522 4.78424 66.4716 3.30371 64.6499 3.30371C62.8282 3.30371 61.3477 4.78424 61.3477 6.60596C61.3477 6.69952 61.3532 6.78753 61.3642 6.88109C61.5017 5.18596 62.9162 3.85409 64.6499 3.85409Z" fill="white" fill-opacity="0.4"/>
<path d="M67.9356 6.88086C67.7981 8.57599 66.3781 9.90786 64.6499 9.90786C62.9217 9.90786 61.5019 8.57599 61.3642 6.88086C61.3586 6.97442 61.3477 7.06243 61.3477 7.15599C61.3477 8.97771 62.8282 10.4582 64.6499 10.4582C66.4716 10.4582 67.9522 8.97771 67.9522 7.15599C67.9522 7.06243 67.9467 6.97442 67.9356 6.88086Z" fill="#212121" fill-opacity="0.1"/>
<path d="M86.662 19.8142C86.662 16.9413 84.8238 14.5032 82.2591 13.5951V6.60536C82.2591 2.95649 79.3036 0.000976562 75.6546 0.000976562H11.8121C8.16308 0.000976562 5.20757 2.95649 5.20757 6.60536L5.22409 13.584C2.6539 14.4866 0.804688 16.9302 0.804688 19.8142C0.804688 20.1224 0.826752 20.4251 0.86521 20.7168L5.20757 48.4333L3.02271 76.5956C3.01174 76.7497 3.00619 76.8983 3.00619 77.0524C3.00619 80.7014 5.9617 83.6568 9.61057 83.6568H77.8561C81.5051 83.6568 84.4605 80.7013 84.4605 77.0524C84.4605 76.8983 84.455 76.7497 84.444 76.5956L82.259 48.4333L86.6014 20.7168C86.6401 20.4251 86.662 20.1224 86.662 19.8142Z" fill="url(#paint3_radial)" fill-opacity="0.05"/>
<defs>
<linearGradient id="paint0_linear" x1="25.2011" y1="28.8025" x2="61.2865" y2="64.888" gradientUnits="userSpaceOnUse">
<stop stop-color="#1A237E" stop-opacity="0.2"/>
<stop offset="1" stop-color="#1A237E" stop-opacity="0.02"/>
</linearGradient>
<linearGradient id="paint1_linear" x1="22.7665" y1="6.56083" x2="27.0479" y2="10.8423" gradientUnits="userSpaceOnUse">
<stop stop-color="#212121" stop-opacity="0.2"/>
<stop offset="1" stop-color="#212121" stop-opacity="0.02"/>
</linearGradient>
<linearGradient id="paint2_linear" x1="64.594" y1="6.56813" x2="68.3483" y2="10.3224" gradientUnits="userSpaceOnUse">
<stop stop-color="#212121" stop-opacity="0.2"/>
<stop offset="1" stop-color="#212121" stop-opacity="0.02"/>
</linearGradient>
<radialGradient id="paint3_radial" cx="0" cy="0" r="1" gradientUnits="userSpaceOnUse" gradientTransform="translate(6.69955 1.84943) scale(110.208)">
<stop offset="0.33" stop-color="white"/>
<stop offset="1" stop-color="white" stop-opacity="0"/>
</radialGradient>
</defs>
</svg>
