<svg width="29" height="29" viewBox="0 0 29 29" fill="none" xmlns="http://www.w3.org/2000/svg">
<path d="M14.5 2.61267C18.3717 2.61267 18.8302 2.6274 20.3592 2.69716C21.7729 2.76168 22.5407 2.9979 23.0517 3.19642C23.7285 3.45946 24.2115 3.77372 24.7189 4.28109C25.2263 4.78847 25.5405 5.27155 25.8035 5.94831C26.0021 6.45931 26.2383 7.22708 26.3028 8.64076C26.3726 10.1698 26.3873 10.6283 26.3873 14.5C26.3873 18.3717 26.3726 18.8303 26.3028 20.3592C26.2383 21.773 26.0021 22.5407 25.8035 23.0517C25.5405 23.7285 25.2263 24.2116 24.7189 24.719C24.2115 25.2263 23.7285 25.5406 23.0517 25.8036C22.5407 26.0022 21.7729 26.2384 20.3592 26.3029C18.8305 26.3727 18.3719 26.3874 14.5 26.3874C10.6281 26.3874 10.1695 26.3727 8.64076 26.3029C7.22702 26.2384 6.45926 26.0022 5.94831 25.8036C5.27149 25.5406 4.78841 25.2263 4.28104 24.719C3.77366 24.2116 3.4594 23.7285 3.19642 23.0517C2.99784 22.5407 2.76163 21.773 2.6971 20.3593C2.62734 18.8303 2.61261 18.3717 2.61261 14.5C2.61261 10.6283 2.62734 10.1698 2.6971 8.64081C2.76163 7.22708 2.99784 6.45931 3.19642 5.94831C3.4594 5.27155 3.77366 4.78847 4.28104 4.28109C4.78841 3.77372 5.27149 3.45946 5.94831 3.19642C6.45926 2.9979 7.22702 2.76168 8.6407 2.69716C10.1697 2.6274 10.6283 2.61267 14.5 2.61267ZM14.5 0C10.562 0 10.0682 0.0166918 8.52167 0.0872577C6.97825 0.157708 5.92426 0.40279 5.00189 0.76126C4.04839 1.13182 3.23976 1.62762 2.43366 2.43372C1.62756 3.23982 1.13176 4.04845 0.761202 5.00195C0.402732 5.92431 0.157651 6.97831 0.0872001 8.52173C0.0166342 10.0682 0 10.562 0 14.5C0 18.438 0.0166342 18.9318 0.0872001 20.4783C0.157651 22.0217 0.402732 23.0757 0.761202 23.9981C1.13176 24.9516 1.62756 25.7602 2.43366 26.5663C3.23976 27.3724 4.04839 27.8682 5.00189 28.2388C5.92426 28.5973 6.97825 28.8424 8.52167 28.9128C10.0682 28.9834 10.562 29 14.5 29C18.438 29 18.9318 28.9834 20.4783 28.9128C22.0217 28.8424 23.0757 28.5973 23.9981 28.2388C24.9516 27.8682 25.7602 27.3724 26.5663 26.5663C27.3724 25.7602 27.8682 24.9516 28.2387 23.9981C28.5972 23.0757 28.8423 22.0217 28.9127 20.4783C28.9833 18.9318 29 18.438 29 14.5C29 10.562 28.9833 10.0682 28.9127 8.52173C28.8423 6.97831 28.5972 5.92431 28.2387 5.00195C27.8682 4.04845 27.3724 3.23982 26.5663 2.43372C25.7602 1.62762 24.9516 1.13182 23.9981 0.76126C23.0757 0.40279 22.0217 0.157708 20.4783 0.0872577C18.9318 0.0166918 18.438 0 14.5 0ZM14.5 7.05406C10.3877 7.05406 7.054 10.3878 7.054 14.5C7.054 18.6123 10.3877 21.946 14.5 21.946C18.6122 21.946 21.9459 18.6123 21.9459 14.5C21.9459 10.3878 18.6122 7.05406 14.5 7.05406ZM14.5 19.3334C11.8306 19.3334 9.66661 17.1694 9.66661 14.5C9.66661 11.8307 11.8306 9.66667 14.5 9.66667C17.1693 9.66667 19.3333 11.8307 19.3333 14.5C19.3333 17.1694 17.1693 19.3334 14.5 19.3334ZM23.9801 6.75988C23.9801 7.72087 23.2011 8.49991 22.2401 8.49991C21.2791 8.49991 20.5001 7.72087 20.5001 6.75988C20.5001 5.79889 21.2791 5.01991 22.2401 5.01991C23.2011 5.01991 23.9801 5.79889 23.9801 6.75988Z" fill="white"/>
</svg>
