<svg width="26" height="26" viewBox="0 0 26 26" fill="none" xmlns="http://www.w3.org/2000/svg">
<path d="M26 13C26 15.5712 25.2376 18.0846 23.8091 20.2224C22.3806 22.3602 20.3503 24.0265 17.9749 25.0104C15.5994 25.9944 12.9856 26.2518 10.4638 25.7502C7.94208 25.2486 5.6257 24.0105 3.80762 22.1924C1.98953 20.3743 0.751405 18.0579 0.249797 15.5362C-0.251811 13.0144 0.00563269 10.4006 0.989572 8.02511C1.97351 5.64967 3.63975 3.61935 5.77759 2.19089C7.91543 0.762437 10.4288 0 13 0C16.4478 0 19.7544 1.36964 22.1924 3.80761C24.6304 6.24558 26 9.55218 26 13Z" fill="white"/>
<path d="M14.7343 6.5H8.45703V19.5H11.0503V15.6003H14.7343C15.9273 15.5793 17.0642 15.0907 17.9004 14.2396C18.7366 13.3886 19.2051 12.2432 19.2051 11.0501C19.2051 9.85705 18.7366 8.71168 17.9004 7.86065C17.0642 7.00961 15.9273 6.521 14.7343 6.5ZM14.7343 13H11.0503V9.10028H14.7343C15.2424 9.11394 15.7251 9.32537 16.0796 9.68954C16.4341 10.0537 16.6325 10.5419 16.6325 11.0501C16.6325 11.5584 16.4341 12.0466 16.0796 12.4107C15.7251 12.7749 15.2424 12.9863 14.7343 13Z" fill="#1C3046"/>
</svg>
