<svg width="191" height="46" viewBox="0 0 191 46" fill="none" xmlns="http://www.w3.org/2000/svg">
<path d="M33.4041 27.8706C30.9473 37.881 19.268 46 9.27708 46L11.7759 35.8107C4.15981 33.9845 -1.67561 26.7639 0.436815 18.1379C2.89991 8.1169 14.577 0 24.5722 0L22.0713 10.1893C29.6874 12.0155 35.5228 19.2382 33.4041 27.8706Z" fill="white"/>
<path d="M33.4041 27.8706C30.9473 37.881 19.268 46 9.27708 46L11.7759 35.8107C4.15981 33.9845 -1.67561 26.7639 0.436815 18.1379C2.89991 8.1169 14.577 0 24.5722 0L22.0713 10.1893C29.6874 12.0155 35.5228 19.2382 33.4041 27.8706Z" fill="url(#paint0_linear)"/>
<path d="M27.9852 20.7343L11.7767 35.8109H11.7746L14.3637 25.264H5.85938L22.0679 10.1895L19.4809 20.7343H27.9852Z" fill="white"/>
<path d="M50.0983 34.3712C48.6948 33.7918 47.4593 32.8596 46.5078 31.662L50.2721 27.1216C51.5732 28.847 52.9802 29.7088 54.4932 29.7071C55.4864 29.7071 56.247 29.4002 56.7751 28.7864C57.3031 28.1726 57.5647 27.2755 57.5597 26.095V15.4451H49.1175V10.0269H64.383V25.6787C64.383 28.8907 63.5877 31.2988 61.9969 32.9031C60.4061 34.5074 58.0663 35.3078 54.9774 35.3045C53.3059 35.3287 51.6466 35.0113 50.0983 34.3712Z" fill="#0F1B28"/>
<path d="M85.1466 27.2809H72.2081C72.4361 28.1979 72.9808 28.9927 73.7359 29.5102C74.5891 30.0591 75.5768 30.332 76.5763 30.2952C77.4303 30.2952 78.916 29.803 79.5735 28.6933L84.6342 30.1524C82.849 33.9099 79.7068 35.3051 76.3774 35.3051C74.2967 35.3051 72.4686 34.8949 70.8932 34.0747C69.404 33.3035 68.1469 32.1137 67.2612 30.6371C66.3756 29.1605 65.896 27.4549 65.8757 25.7092C65.8553 23.9635 66.295 22.246 67.1459 20.747C67.9969 19.2481 69.2259 18.0262 70.6967 17.2168C72.2243 16.4143 73.9059 15.9895 75.6134 15.9745C77.3209 15.9596 79.009 16.355 80.5491 17.1307C81.9692 17.8738 83.1595 19.0258 83.9814 20.4526C84.8237 21.9289 85.4928 24.1115 85.1466 27.2809ZM73.3405 21.4786C72.6782 22.0836 72.242 22.9165 72.1099 23.8286H79.4097C79.2756 22.9172 78.8397 22.0849 78.179 21.4786C77.4867 20.9188 76.6378 20.6152 75.7644 20.6152C74.8911 20.6152 74.0422 20.9188 73.3499 21.4786H73.3405Z" fill="#0F1B28"/>
<path d="M149.191 27.2809H135.254C135.5 28.1979 136.087 28.9927 136.9 29.5102C137.819 30.0591 138.882 30.332 139.959 30.2952C140.879 30.2952 142.479 29.803 143.187 28.6933L148.637 30.1524C146.715 33.9099 143.33 35.3051 139.747 35.3051C137.505 35.3051 135.535 34.8949 133.838 34.0747C132.234 33.3035 130.88 32.1137 129.927 30.6371C128.973 29.1605 128.456 27.4549 128.434 25.7092C128.412 23.9635 128.886 22.246 129.802 20.747C130.719 19.2481 132.042 18.0262 133.627 17.2168C135.272 16.4143 137.083 15.9895 138.922 15.9745C140.761 15.9596 142.579 16.355 144.238 17.1307C145.767 17.8738 147.049 19.0258 147.934 20.4526C148.841 21.9289 149.554 24.1115 149.191 27.2809ZM136.474 21.4786C135.761 22.0843 135.292 22.9169 135.149 23.8286H143C142.857 22.9169 142.387 22.0843 141.675 21.4786C140.929 20.9188 140.015 20.6152 139.074 20.6152C138.134 20.6152 137.22 20.9188 136.474 21.4786V21.4786Z" fill="#0F1B28"/>
<path d="M101.623 34.2078C100.997 34.5905 100.314 34.8656 99.6012 35.0223C98.7673 35.2141 97.9149 35.3088 97.0602 35.3047C94.6178 35.3047 92.74 34.6911 91.4268 33.4639C90.1137 32.2367 89.4571 30.4077 89.4571 27.9768V21.5264H86.7266V16.5008H89.4571V11.5129H96.0236V16.5008H100.308V21.5264H96.0236V27.9037C95.9909 28.4914 96.1825 29.0692 96.5579 29.515C96.7432 29.7108 96.9669 29.8641 97.2144 29.9645C97.4619 30.0649 97.7274 30.1103 97.9934 30.0975C99.2578 30.1231 100.507 29.8157 101.623 29.2049V34.2078Z" fill="#0F1B28"/>
<path d="M103.117 10.0264H113.512C116.147 10.0264 118.484 10.5412 120.524 11.5707C122.479 12.5343 124.126 14.073 125.266 16.0005C126.388 17.9018 126.949 20.1326 126.951 22.6928C126.952 25.2531 126.391 27.4839 125.266 29.3852C124.12 31.294 122.473 32.8136 120.524 33.7609C118.484 34.7905 116.147 35.3053 113.512 35.3053H103.117V10.0264ZM113.238 29.6117C115.3 29.6117 116.955 28.9973 118.203 27.7687C119.452 26.5401 120.076 24.8421 120.076 22.6748C120.076 20.5041 119.452 18.8053 118.203 17.5784C116.955 16.3515 115.3 15.7397 113.238 15.7431H109.921V29.6194L113.238 29.6117Z" fill="#0F1B28"/>
<path d="M154.019 34.769C152.87 34.5074 151.774 34.0346 150.781 33.3725V27.8845C151.588 28.4156 154.182 29.8343 155.297 30.1441C156.375 30.4511 157.486 30.6081 158.602 30.6112C159.607 30.6112 160.321 30.5031 160.748 30.2842C160.932 30.2121 161.092 30.0829 161.206 29.9136C161.32 29.7443 161.383 29.5427 161.387 29.3351C161.387 28.9196 161.13 28.627 160.617 28.4524C159.817 28.2229 159.001 28.0585 158.177 27.9607C156.956 27.8167 155.746 27.5742 154.56 27.2353C153.576 26.9419 152.689 26.3685 151.994 25.5781C151.274 24.7733 150.914 23.6464 150.914 22.1973C150.897 21.0419 151.251 19.9144 151.919 18.9984C152.596 18.0674 153.583 17.3298 154.882 16.7855C156.18 16.2413 157.735 15.9709 159.547 15.9742C160.834 15.9742 164.613 16.3405 166.077 17.5625V22.5588C164.508 21.6392 161.413 20.6335 159.572 20.6335C158.588 20.6335 157.87 20.754 157.41 20.995C156.951 21.2359 156.722 21.5531 156.722 21.9441C156.722 22.3817 156.973 22.6874 157.475 22.8612C158.292 23.1027 159.123 23.281 159.964 23.3947C161.191 23.5728 162.405 23.8381 163.598 24.1889C164.558 24.4877 165.423 25.0544 166.103 25.8289C166.812 26.6223 167.167 27.732 167.167 29.1581C167.176 30.3033 166.817 31.418 166.147 32.3201C165.471 33.2528 164.473 33.983 163.153 34.5109C161.832 35.0387 160.244 35.3034 158.387 35.3051C156.916 35.3039 155.451 35.124 154.019 34.769V34.769Z" fill="#0F1B28"/>
<path d="M178.313 28.8327L176.453 30.7742V35.3053H170.145V10.0264H176.453V23.2774L182.897 16.846H190.367L182.897 24.7433L190.999 35.3053H183.361L178.313 28.8327Z" fill="#0F1B28"/>
<defs>
<linearGradient id="paint0_linear" x1="33.8429" y1="23" x2="0.00425171" y2="23" gradientUnits="userSpaceOnUse">
<stop stop-color="#2A82E9"/>
<stop offset="1" stop-color="#4937E8"/>
</linearGradient>
</defs>
</svg>
