<svg width="109" height="108" viewBox="0 0 109 108" fill="none" xmlns="http://www.w3.org/2000/svg">
<path d="M96.9681 47.2535C96.9681 23.6607 77.8175 4.52441 54.2243 4.52441C30.6311 4.52441 11.4805 23.6607 11.4805 47.2535C11.4805 69.6049 31.8729 87.7312 54.2243 87.7312V103.475C80.1853 90.3063 96.9681 69.1191 96.9681 47.2535Z" fill="#00897B"/>
<path d="M80.6555 31.7949L75.0483 47.2536H44.105L31.6875 62.4732L77.2002 107.97H107.65V58.7801L80.6555 31.7949Z" fill="url(#paint0_linear)"/>
<g opacity="0.2">
<path opacity="0.2" d="M54.2243 87.1677C31.9577 87.1677 11.6501 69.1879 11.4882 46.9521C11.4882 47.0524 11.4805 47.1526 11.4805 47.2528C11.4805 69.6042 31.8729 87.7306 54.2243 87.7306V87.1677ZM54.2243 102.912V103.474C80.1853 90.3057 96.9681 69.1185 96.9681 47.2528C96.9681 47.1603 96.9604 47.0678 96.9604 46.983C96.8139 68.7407 80.0696 89.8046 54.2243 102.912Z" fill="#263238"/>
</g>
<g opacity="0.2">
<path opacity="0.2" d="M63.786 64.1161H35.6654C34.2232 64.1161 32.7886 63.5687 31.6857 62.4662C30.5828 61.3637 30.0352 59.9296 30.0352 58.4878V59.0507C30.0352 60.4924 30.5828 61.9265 31.6857 63.029C32.7886 64.1316 34.2232 64.679 35.6654 64.679H63.786C65.2282 64.679 66.6628 64.1316 67.7657 63.029C68.8609 61.9342 69.4162 60.4924 69.4162 59.0507V58.4878C69.4162 59.9296 68.8686 61.3637 67.7657 62.4662C66.6628 63.5687 65.2205 64.1161 63.786 64.1161ZM69.4085 52.0345L80.6536 63.2758V62.7129L69.4085 51.4717V52.0345Z" fill="#263238"/>
</g>
<path d="M69.4046 43.0379V36.0141C69.4046 34.5723 68.857 33.1382 67.7541 32.0357C66.6589 30.9409 65.2166 30.3857 63.7743 30.3857H35.6615C34.2192 30.3857 32.7847 30.9332 31.6818 32.0357C30.5866 33.1305 30.0312 34.5723 30.0312 36.0141V58.5043C30.0312 59.946 30.5789 61.3801 31.6818 62.4826C32.7847 63.5852 34.2192 64.1326 35.6615 64.1326H63.782C65.2243 64.1326 66.6589 63.5852 67.7618 62.4826C68.857 61.3878 69.4123 59.946 69.4123 58.5043V51.4804L80.6574 62.7216V31.7967L69.4046 43.0379Z" fill="#F5F5F5"/>
<path d="M30.0469 36.0141V47.2553H80.6576V31.7967L69.4125 43.0379V36.0141C69.4125 34.5723 68.8649 33.1382 67.762 32.0357C66.6668 30.9409 65.2245 30.3857 63.7822 30.3857H35.6694C34.2272 30.3857 32.7926 30.9332 31.6897 32.0357C30.5945 33.1305 30.0469 34.5723 30.0469 36.0141Z" fill="#E0E0E0"/>
<path d="M30.0469 46.6924H80.6576V47.2552H30.0469V46.6924Z" fill="#212121" fill-opacity="0.02"/>
<path d="M30.0469 47.2539H80.6576V47.8167H30.0469V47.2539Z" fill="white" fill-opacity="0.05"/>
<path opacity="0.2" d="M35.6615 30.9486H63.782C65.2243 30.9486 66.6589 31.496 67.7618 32.5985C68.857 33.6934 69.4123 35.1351 69.4123 36.5769V36.0141C69.4123 34.5723 68.8647 33.1382 67.7618 32.0357C66.6666 30.9409 65.2243 30.3857 63.782 30.3857H35.6615C34.2192 30.3857 32.7847 30.9332 31.6818 32.0357C30.5866 33.1305 30.0312 34.5723 30.0312 36.0141V36.5769C30.0312 35.1351 30.5789 33.7011 31.6818 32.5985C32.7847 31.5037 34.2192 30.9486 35.6615 30.9486ZM69.4046 43.0379V43.6007L80.6497 32.3595V31.7967L69.4046 43.0379Z" fill="white"/>
<path opacity="0.2" d="M54.2243 5.08714C77.7249 5.08714 96.8139 24.0693 96.9604 47.5386C96.9604 47.4384 96.9681 47.3459 96.9681 47.2456C96.9681 23.6529 77.8175 4.5166 54.2243 4.5166C30.6311 4.5166 11.4805 23.6606 11.4805 47.2533C11.4805 47.3459 11.4882 47.4307 11.4882 47.5155C11.6501 24.0616 30.7314 5.08714 54.2243 5.08714Z" fill="white"/>
<path d="M96.9681 47.2544C96.9681 23.6617 77.8175 4.52539 54.2243 4.52539C30.6311 4.52539 11.4805 23.6617 11.4805 47.2544C11.4805 69.6058 31.8729 87.7321 54.2243 87.7321V103.476C80.1853 90.3073 96.9681 69.1201 96.9681 47.2544Z" fill="url(#paint1_radial)"/>
<defs>
<linearGradient id="paint0_linear" x1="53.7589" y1="44.7203" x2="90.7216" y2="81.6957" gradientUnits="userSpaceOnUse">
<stop stop-color="#263238" stop-opacity="0.2"/>
<stop offset="1" stop-color="#263238" stop-opacity="0.02"/>
</linearGradient>
<radialGradient id="paint1_radial" cx="0" cy="0" r="1" gradientUnits="userSpaceOnUse" gradientTransform="translate(23.6681 16.8025) scale(87.2763 87.2461)">
<stop stop-color="white" stop-opacity="0.1"/>
<stop offset="1" stop-color="white" stop-opacity="0"/>
</radialGradient>
</defs>
</svg>
