<svg width="27" height="22" viewBox="0 0 27 22" fill="none" xmlns="http://www.w3.org/2000/svg">
<path fill-rule="evenodd" clip-rule="evenodd" d="M27 2.60606C26.0051 3.04646 24.9376 3.34545 23.8178 3.47879C24.9618 2.79192 25.8399 1.70101 26.2508 0.40404C25.1793 1.04242 23.9951 1.50303 22.7343 1.75354C21.7233 0.674747 20.2852 0 18.6901 0C15.6329 0 13.1516 2.48889 13.1516 5.55556C13.1516 5.99192 13.1999 6.41616 13.2966 6.8202C8.69252 6.5899 4.61211 4.37576 1.8811 1.01414C1.40579 1.83434 1.13188 2.78788 1.13188 3.80606C1.13188 5.73333 2.1107 7.43434 3.59705 8.42828C2.69074 8.4 1.83679 8.14949 1.08757 7.73333C1.08757 7.75758 1.08757 7.77778 1.08757 7.80202C1.08757 10.4929 2.99687 12.7394 5.53051 13.2485C5.06728 13.3737 4.57586 13.4424 4.07236 13.4424C3.71386 13.4424 3.36745 13.4061 3.02909 13.3414C3.734 15.5475 5.78025 17.1556 8.2011 17.2C6.30389 18.6909 3.91929 19.5798 1.3212 19.5798C0.874086 19.5798 0.435029 19.5515 0 19.503C2.44905 21.0788 5.36133 22 8.49112 22C18.6781 22 24.2488 13.5354 24.2488 6.19394C24.2488 5.95151 24.2448 5.71313 24.2327 5.47475C25.3163 4.69091 26.2548 3.71313 26.996 2.59798L27 2.60606Z" fill="white"/>
</svg>
